<svg width="101" height="27" viewBox="0 0 101 27" fill="none" xmlns="http://www.w3.org/2000/svg">
<path d="M15.84 11.2C15.4347 10.4533 14.848 9.888 14.08 9.504C13.3333 9.09867 12.448 8.896 11.424 8.896C9.65333 8.896 8.23467 9.48267 7.168 10.656C6.10133 11.808 5.568 13.3547 5.568 15.296C5.568 17.3653 6.12267 18.9867 7.232 20.16C8.36267 21.312 9.90933 21.888 11.872 21.888C13.216 21.888 14.3467 21.5467 15.264 20.864C16.2027 20.1813 16.8853 19.2 17.312 17.92H10.368V13.888H22.272V18.976C21.8667 20.3413 21.1733 21.6107 20.192 22.784C19.232 23.9573 18.0053 24.9067 16.512 25.632C15.0187 26.3573 13.3333 26.72 11.456 26.72C9.23733 26.72 7.25333 26.24 5.504 25.28C3.776 24.2987 2.42133 22.944 1.44 21.216C0.48 19.488 0 17.5147 0 15.296C0 13.0773 0.48 11.104 1.44 9.376C2.42133 7.62667 3.776 6.272 5.504 5.312C7.232 4.33067 9.20533 3.84 11.424 3.84C14.112 3.84 16.3733 4.49067 18.208 5.792C20.064 7.09333 21.2907 8.896 21.888 11.2H15.84Z" fill="black"/>
<path d="M24.215 17.6C24.215 15.7653 24.5563 14.1547 25.239 12.768C25.943 11.3813 26.8923 10.3147 28.087 9.568C29.2817 8.82133 30.615 8.448 32.087 8.448C33.3457 8.448 34.4443 8.704 35.383 9.216C36.343 9.728 37.079 10.4 37.591 11.232V8.704H43.063V26.56H37.591V24.032C37.0577 24.864 36.311 25.536 35.351 26.048C34.4123 26.56 33.3137 26.816 32.055 26.816C30.6043 26.816 29.2817 26.4427 28.087 25.696C26.8923 24.928 25.943 23.8507 25.239 22.464C24.5563 21.056 24.215 19.4347 24.215 17.6ZM37.591 17.632C37.591 16.2667 37.207 15.1893 36.439 14.4C35.6923 13.6107 34.775 13.216 33.687 13.216C32.599 13.216 31.671 13.6107 30.903 14.4C30.1563 15.168 29.783 16.2347 29.783 17.6C29.783 18.9653 30.1563 20.0533 30.903 20.864C31.671 21.6533 32.599 22.048 33.687 22.048C34.775 22.048 35.6923 21.6533 36.439 20.864C37.207 20.0747 37.591 18.9973 37.591 17.632Z" fill="black"/>
<path d="M52.4938 11.68C53.1338 10.6987 53.9338 9.93067 54.8938 9.376C55.8538 8.8 56.9204 8.512 58.0938 8.512V14.304H56.5898C55.2244 14.304 54.2004 14.6027 53.5177 15.2C52.8351 15.776 52.4938 16.8 52.4938 18.272V26.56H47.0218V8.704H52.4938V11.68Z" fill="black"/>
<path d="M78.3412 8.704V26.56H72.8692V24.128C72.3146 24.9173 71.5573 25.5573 70.5973 26.048C69.6586 26.5173 68.6133 26.752 67.4613 26.752C66.0959 26.752 64.8906 26.4533 63.8453 25.856C62.7999 25.2373 61.9893 24.352 61.4132 23.2C60.8372 22.048 60.5493 20.6933 60.5493 19.136V8.704H65.9893V18.4C65.9893 19.5947 66.2986 20.5227 66.9173 21.184C67.5359 21.8453 68.3679 22.176 69.4133 22.176C70.4799 22.176 71.3226 21.8453 71.9413 21.184C72.5599 20.5227 72.8692 19.5947 72.8692 18.4V8.704H78.3412ZM73.2533 4.256L65.5413 7.488V3.712L73.2533 0V4.256Z" fill="black"/>
<path d="M81.1838 17.6C81.1838 15.7653 81.5251 14.1547 82.2077 12.768C82.9117 11.3813 83.8611 10.3147 85.0557 9.568C86.2504 8.82133 87.5837 8.448 89.0557 8.448C90.3144 8.448 91.4131 8.704 92.3518 9.216C93.3118 9.728 94.0478 10.4 94.5598 11.232V8.704H100.032V26.56H94.5598V24.032C94.0264 24.864 93.2797 25.536 92.3197 26.048C91.3811 26.56 90.2824 26.816 89.0238 26.816C87.5731 26.816 86.2504 26.4427 85.0557 25.696C83.8611 24.928 82.9117 23.8507 82.2077 22.464C81.5251 21.056 81.1838 19.4347 81.1838 17.6ZM94.5598 17.632C94.5598 16.2667 94.1758 15.1893 93.4078 14.4C92.6611 13.6107 91.7437 13.216 90.6557 13.216C89.5677 13.216 88.6397 13.6107 87.8717 14.4C87.1251 15.168 86.7517 16.2347 86.7517 17.6C86.7517 18.9653 87.1251 20.0533 87.8717 20.864C88.6397 21.6533 89.5677 22.048 90.6557 22.048C91.7437 22.048 92.6611 21.6533 93.4078 20.864C94.1758 20.0747 94.5598 18.9973 94.5598 17.632Z" fill="black"/>
</svg>
