<svg width="155" height="75" viewBox="0 0 155 75" fill="none" xmlns="http://www.w3.org/2000/svg">
<path d="M0.0400001 0.879996H9.16V58H0.0400001V0.879996ZM38.3069 59.12C35.0002 59.12 32.0402 58.5867 29.4269 57.52C26.8669 56.4 24.6802 54.88 22.8669 52.96C21.1069 51.04 19.7469 48.7467 18.7869 46.08C17.8802 43.4133 17.4269 40.48 17.4269 37.28C17.4269 34.1333 17.8802 31.2267 18.7869 28.56C19.7469 25.8933 21.1069 23.6 22.8669 21.68C24.6802 19.76 26.8669 18.2667 29.4269 17.2C32.0402 16.08 35.0002 15.52 38.3069 15.52C41.6135 15.52 44.5469 16.08 47.1069 17.2C49.7202 18.2667 51.9069 19.76 53.6669 21.68C55.4802 23.6 56.8402 25.8933 57.7469 28.56C58.7069 31.2267 59.1869 34.1333 59.1869 37.28C59.1869 40.48 58.7069 43.4133 57.7469 46.08C56.8402 48.7467 55.4802 51.04 53.6669 52.96C51.9069 54.88 49.7202 56.4 47.1069 57.52C44.5469 58.5867 41.6135 59.12 38.3069 59.12ZM38.3069 51.92C40.3335 51.92 42.0935 51.4933 43.5869 50.64C45.0802 49.7867 46.3069 48.6667 47.2669 47.28C48.2269 45.8933 48.9202 44.3467 49.3469 42.64C49.8269 40.88 50.0669 39.0933 50.0669 37.28C50.0669 35.52 49.8269 33.76 49.3469 32C48.9202 30.24 48.2269 28.6933 47.2669 27.36C46.3069 25.9733 45.0802 24.8533 43.5869 24C42.0935 23.1467 40.3335 22.72 38.3069 22.72C36.2802 22.72 34.5202 23.1467 33.0269 24C31.5335 24.8533 30.3069 25.9733 29.3469 27.36C28.3869 28.6933 27.6669 30.24 27.1869 32C26.7602 33.76 26.5469 35.52 26.5469 37.28C26.5469 39.0933 26.7602 40.88 27.1869 42.64C27.6669 44.3467 28.3869 45.8933 29.3469 47.28C30.3069 48.6667 31.5335 49.7867 33.0269 50.64C34.5202 51.4933 36.2802 51.92 38.3069 51.92ZM105.259 55.84C105.259 62.08 103.499 66.72 99.9788 69.76C96.5121 72.8533 91.4988 74.4 84.9388 74.4C82.8588 74.4 80.7521 74.1867 78.6188 73.76C76.5388 73.3333 74.6188 72.6133 72.8588 71.6C71.1521 70.5867 69.7121 69.2533 68.5388 67.6C67.3654 65.9467 66.6721 63.92 66.4588 61.52H75.5788C75.8454 62.8 76.2988 63.84 76.9388 64.64C77.5788 65.44 78.3254 66.0533 79.1788 66.48C80.0854 66.96 81.0721 67.2533 82.1388 67.36C83.2054 67.52 84.3254 67.6 85.4988 67.6C89.1788 67.6 91.8721 66.6933 93.5788 64.88C95.2854 63.0667 96.1388 60.4533 96.1388 57.04V50.72H95.9788C94.6988 53.0133 92.9388 54.8 90.6988 56.08C88.5121 57.36 86.1388 58 83.5788 58C80.2721 58 77.4454 57.44 75.0988 56.32C72.8054 55.1467 70.8854 53.5733 69.3388 51.6C67.8454 49.5733 66.7521 47.2533 66.0588 44.64C65.3654 42.0267 65.0188 39.2267 65.0188 36.24C65.0188 33.4667 65.4454 30.8267 66.2988 28.32C67.1521 25.8133 68.3788 23.6267 69.9788 21.76C71.5788 19.84 73.5254 18.32 75.8188 17.2C78.1654 16.08 80.8054 15.52 83.7388 15.52C86.3521 15.52 88.7521 16.08 90.9388 17.2C93.1254 18.2667 94.8054 19.9733 95.9788 22.32H96.1388V16.64H105.259V55.84ZM85.0188 50.8C87.0454 50.8 88.7521 50.4 90.1388 49.6C91.5788 48.7467 92.7254 47.6533 93.5788 46.32C94.4854 44.9333 95.1254 43.3867 95.4988 41.68C95.9254 39.92 96.1388 38.16 96.1388 36.4C96.1388 34.64 95.9254 32.9333 95.4988 31.28C95.0721 29.6267 94.4054 28.16 93.4988 26.88C92.6454 25.6 91.4988 24.5867 90.0588 23.84C88.6721 23.0933 86.9921 22.72 85.0188 22.72C82.9921 22.72 81.2854 23.1467 79.8988 24C78.5121 24.8533 77.3921 25.9733 76.5388 27.36C75.6854 28.6933 75.0721 30.24 74.6988 32C74.3254 33.7067 74.1388 35.4133 74.1388 37.12C74.1388 38.8267 74.3521 40.5067 74.7788 42.16C75.2054 43.76 75.8454 45.2 76.6988 46.48C77.6054 47.76 78.7254 48.8 80.0588 49.6C81.4454 50.4 83.0988 50.8 85.0188 50.8ZM133.651 59.12C130.344 59.12 127.384 58.5867 124.771 57.52C122.211 56.4 120.024 54.88 118.211 52.96C116.451 51.04 115.091 48.7467 114.131 46.08C113.224 43.4133 112.771 40.48 112.771 37.28C112.771 34.1333 113.224 31.2267 114.131 28.56C115.091 25.8933 116.451 23.6 118.211 21.68C120.024 19.76 122.211 18.2667 124.771 17.2C127.384 16.08 130.344 15.52 133.651 15.52C136.957 15.52 139.891 16.08 142.451 17.2C145.064 18.2667 147.251 19.76 149.011 21.68C150.824 23.6 152.184 25.8933 153.091 28.56C154.051 31.2267 154.531 34.1333 154.531 37.28C154.531 40.48 154.051 43.4133 153.091 46.08C152.184 48.7467 150.824 51.04 149.011 52.96C147.251 54.88 145.064 56.4 142.451 57.52C139.891 58.5867 136.957 59.12 133.651 59.12ZM133.651 51.92C135.677 51.92 137.437 51.4933 138.931 50.64C140.424 49.7867 141.651 48.6667 142.611 47.28C143.571 45.8933 144.264 44.3467 144.691 42.64C145.171 40.88 145.411 39.0933 145.411 37.28C145.411 35.52 145.171 33.76 144.691 32C144.264 30.24 143.571 28.6933 142.611 27.36C141.651 25.9733 140.424 24.8533 138.931 24C137.437 23.1467 135.677 22.72 133.651 22.72C131.624 22.72 129.864 23.1467 128.371 24C126.877 24.8533 125.651 25.9733 124.691 27.36C123.731 28.6933 123.011 30.24 122.531 32C122.104 33.76 121.891 35.52 121.891 37.28C121.891 39.0933 122.104 40.88 122.531 42.64C123.011 44.3467 123.731 45.8933 124.691 47.28C125.651 48.6667 126.877 49.7867 128.371 50.64C129.864 51.4933 131.624 51.92 133.651 51.92Z" fill="black"/>
</svg>
